<?xml version="1.0" standalone="no"?>
<!DOCTYPE svg PUBLIC "-//W3C//DTD SVG 20010904//EN"
 "http://www.w3.org/TR/2001/REC-SVG-20010904/DTD/svg10.dtd">
<svg version="1.0" xmlns="http://www.w3.org/2000/svg"
 width="343.000000pt" height="163.000000pt" viewBox="0 0 343.000000 163.000000"
 preserveAspectRatio="xMidYMid meet">

<g transform="translate(0.000000,163.000000) scale(0.100000,-0.100000)"
fill="#000000" stroke="none">
<path d="M627 1595 c-9 -20 -17 -41 -17 -48 0 -7 9 8 20 32 24 52 21 66 -3 16z"/>
<path d="M687 1604 c17 -16 43 -47 57 -68 14 -21 26 -34 26 -28 0 16 -82 115
-100 120 -8 2 -1 -9 17 -24z"/>
<path d="M602 1469 c-2 -74 26 -144 78 -194 l30 -29 -1 25 c-1 13 -5 38 -10
54 -7 24 -7 22 -3 -14 4 -39 3 -43 -11 -31 -39 33 -69 104 -76 180 l-6 75 -1
-66z"/>
<path d="M671 1463 c2 -46 2 -46 8 -13 l7 35 14 -43 c7 -23 15 -40 18 -37 6 6
-27 93 -39 100 -5 4 -8 -15 -8 -42z"/>
<path d="M187 1493 c18 -2 50 -2 70 0 21 2 7 4 -32 4 -38 0 -55 -2 -38 -4z"/>
<path d="M113 1483 c9 -2 23 -2 30 0 6 3 -1 5 -18 5 -16 0 -22 -2 -12 -5z"/>
<path d="M320 1480 c34 -11 60 -11 35 0 -11 5 -29 8 -40 8 -16 0 -15 -2 5 -8z"/>
<path d="M775 1400 c0 -49 3 -82 7 -72 4 9 7 42 7 72 0 30 -3 63 -7 72 -4 10
-7 -23 -7 -72z"/>
<path d="M51 1471 c-10 -7 -11 -12 -1 -27 10 -17 11 -17 6 -1 -4 12 1 21 17
27 12 5 15 9 7 9 -8 0 -21 -3 -29 -8z"/>
<path d="M450 1437 c0 -2 21 -18 46 -37 25 -18 66 -60 91 -94 54 -74 62 -82
37 -37 -26 47 -106 132 -143 154 -17 10 -31 16 -31 14z"/>
<path d="M60 1416 c0 -5 14 -34 32 -65 36 -64 119 -151 166 -175 47 -24 39
-14 -17 23 -55 35 -93 79 -146 167 -19 32 -35 54 -35 50z"/>
<path d="M682 1385 c0 -16 2 -22 5 -12 2 9 2 23 0 30 -3 6 -5 -1 -5 -18z"/>
<path d="M721 1374 c0 -11 3 -14 6 -6 3 7 2 16 -1 19 -3 4 -6 -2 -5 -13z"/>
<path d="M251 1344 c23 -28 98 -75 230 -143 71 -37 126 -71 122 -74 -3 -4 -1
-7 5 -7 33 0 3 24 -80 66 -109 54 -213 115 -248 144 l-25 21 35 -5 c26 -5 30
-4 15 3 -11 5 -31 10 -44 10 -20 1 -22 -1 -10 -15z"/>
<path d="M732 1330 c0 -14 2 -19 5 -12 2 6 2 18 0 25 -3 6 -5 1 -5 -13z"/>
<path d="M345 1330 c27 -12 43 -12 25 0 -8 5 -22 9 -30 9 -10 0 -8 -3 5 -9z"/>
<path d="M519 1256 c73 -36 135 -66 137 -66 8 0 4 29 -6 35 -6 3 -7 -1 -4 -10
5 -11 -28 1 -102 38 -60 30 -120 58 -134 61 -14 4 35 -22 109 -58z"/>
<path d="M740 1283 c0 -13 4 -23 9 -23 11 0 24 31 16 38 -3 3 -5 -1 -5 -9 0
-11 -2 -11 -10 1 -8 12 -10 11 -10 -7z"/>
<path d="M878 1253 c7 -3 16 -2 19 1 4 3 -2 6 -13 5 -11 0 -14 -3 -6 -6z"/>
<path d="M1910 1256 c0 -2 9 -6 20 -9 11 -3 18 -1 14 4 -5 9 -34 13 -34 5z"/>
<path d="M775 1168 l-80 -83 83 80 c76 74 87 85 79 85 -1 0 -38 -37 -82 -82z"/>
<path d="M1820 1175 c-41 -41 -72 -75 -69 -75 2 0 38 34 79 75 41 41 72 75 69
75 -2 0 -38 -34 -79 -75z"/>
<path d="M320 1145 c14 -8 32 -14 40 -14 8 0 0 6 -19 14 -42 19 -54 19 -21 0z"/>
<path d="M388 1123 c7 -3 16 -2 19 1 4 3 -2 6 -13 5 -11 0 -14 -3 -6 -6z"/>
<path d="M463 1113 c26 -2 67 -2 90 0 23 2 2 3 -48 3 -49 0 -68 -1 -42 -3z"/>
<path d="M1155 1000 c55 -55 102 -100 105 -100 2 0 -40 45 -95 100 -55 55
-102 100 -105 100 -2 0 40 -45 95 -100z"/>
<path d="M2210 988 c97 -100 110 -113 110 -105 0 1 -48 50 -107 107 l-108 105
105 -107z"/>
<path d="M878 983 c7 -3 16 -2 19 1 4 3 -2 6 -13 5 -11 0 -14 -3 -6 -6z"/>
<path d="M1918 983 c7 -3 16 -2 19 1 4 3 -2 6 -13 5 -11 0 -14 -3 -6 -6z"/>
<path d="M770 893 l-85 -88 88 85 c48 46 87 86 87 87 0 8 -11 -3 -90 -84z"/>
<path d="M1820 905 c-41 -41 -72 -75 -69 -75 2 0 38 34 79 75 41 41 72 75 69
75 -2 0 -38 -34 -79 -75z"/>
<path d="M2794 905 c-17 -13 -39 -37 -49 -52 l-17 -28 28 30 c16 16 40 40 54
52 34 30 23 29 -16 -2z"/>
<path d="M1480 843 l-65 -68 68 65 c62 60 72 70 64 70 -1 0 -32 -30 -67 -67z"/>
<path d="M2841 890 c14 -31 19 -36 19 -24 0 6 -7 19 -16 30 -14 18 -14 18 -3
-6z"/>
<path d="M385 788 l-100 -103 103 100 c95 93 107 105 99 105 -1 0 -47 -46
-102 -102z"/>
<path d="M2867 780 c6 -98 11 -112 12 -30 0 36 -4 74 -8 85 -5 11 -6 -12 -4
-55z"/>
<path d="M1160 728 c97 -100 110 -113 110 -105 0 1 -48 50 -107 107 l-108 105
105 -107z"/>
<path d="M2715 809 c-4 -6 -5 -12 -2 -15 2 -3 7 2 10 11 7 17 1 20 -8 4z"/>
<path d="M2215 710 c55 -55 102 -100 105 -100 2 0 -40 45 -95 100 -55 55 -102
100 -105 100 -2 0 40 -45 95 -100z"/>
<path d="M2785 770 c-8 -16 -15 -35 -14 -42 0 -7 6 1 12 17 l12 30 6 -40 c6
-39 6 -39 8 13 0 28 -1 52 -4 52 -2 0 -11 -13 -20 -30z"/>
<path d="M3238 783 c12 -2 32 -2 45 0 12 2 2 4 -23 4 -25 0 -35 -2 -22 -4z"/>
<path d="M3135 770 c-14 -7 -8 -8 20 -3 22 3 42 7 44 9 9 8 -45 2 -64 -6z"/>
<path d="M3370 765 c30 -7 57 -12 58 -10 6 5 -71 25 -93 24 -11 0 5 -7 35 -14z"/>
<path d="M754 756 c-3 -8 -4 -31 -2 -52 3 -36 4 -35 8 14 5 53 4 63 -6 38z"/>
<path d="M860 717 l5 -52 3 44 c2 24 0 47 -5 52 -4 4 -6 -15 -3 -44z"/>
<path d="M1804 756 c-3 -8 -4 -31 -2 -52 3 -36 4 -35 8 14 5 53 4 63 -6 38z"/>
<path d="M2053 710 c0 -30 2 -43 4 -27 2 15 2 39 0 55 -2 15 -4 2 -4 -28z"/>
<path d="M3024 725 c-63 -38 -137 -111 -168 -166 -23 -41 -13 -31 42 42 45 59
105 108 174 139 24 11 36 20 27 20 -8 0 -42 -16 -75 -35z"/>
<path d="M2691 695 c0 -33 4 -69 8 -80 5 -12 7 9 4 50 -6 91 -11 105 -12 30z"/>
<path d="M2750 658 c-20 -90 -21 -92 -31 -77 -5 8 -9 10 -9 4 0 -14 18 -41 23
-35 7 8 38 153 33 157 -2 2 -9 -20 -16 -49z"/>
<path d="M3380 647 c-46 -80 -111 -145 -185 -184 -33 -18 -55 -33 -49 -33 22
0 131 73 169 114 40 43 111 153 104 160 -2 2 -20 -23 -39 -57z"/>
<path d="M2620 588 c97 -100 110 -113 110 -105 0 1 -48 50 -107 107 l-108 105
105 -107z"/>
<path d="M2786 649 c-4 -23 -5 -44 -2 -46 2 -2 7 14 11 37 4 23 5 43 2 46 -2
3 -7 -14 -11 -37z"/>
<path d="M2856 662 c-4 -11 -21 -39 -38 -63 -28 -39 -32 -41 -39 -24 -6 17 -8
15 -8 -9 l-1 -30 31 30 c31 30 74 102 66 111 -3 2 -8 -4 -11 -15z"/>
<path d="M3215 641 c7 -12 -40 -47 -117 -91 -62 -34 -80 -52 -25 -24 54 28
167 105 167 115 0 5 -7 9 -16 9 -8 0 -13 -4 -9 -9z"/>
<path d="M3178 633 c7 -3 16 -2 19 1 4 3 -2 6 -13 5 -11 0 -14 -3 -6 -6z"/>
<path d="M2053 580 c0 -30 2 -43 4 -27 2 15 2 39 0 55 -2 15 -4 2 -4 -28z"/>
<path d="M3082 608 c-29 -12 -51 -23 -49 -25 2 -2 33 8 68 21 35 14 57 25 49
25 -8 0 -39 -10 -68 -21z"/>
<path d="M380 513 l-105 -108 108 105 c99 97 112 110 104 110 -1 0 -50 -48
-107 -107z"/>
<path d="M751 578 c0 -26 3 -49 7 -52 4 -2 6 12 4 32 -6 62 -10 69 -11 20z"/>
<path d="M860 573 c-3 -29 -1 -48 3 -44 5 5 7 28 5 52 l-3 44 -5 -52z"/>
<path d="M1803 575 c0 -27 2 -38 4 -22 2 15 2 37 0 50 -2 12 -4 0 -4 -28z"/>
<path d="M1610 555 c30 -30 57 -55 59 -55 3 0 -19 25 -49 55 -30 30 -57 55
-59 55 -3 0 19 -25 49 -55z"/>
<path d="M3000 570 c-9 -6 -10 -10 -3 -10 6 0 15 5 18 10 8 12 4 12 -15 0z"/>
<path d="M2928 539 c-21 -11 -38 -22 -38 -24 0 -5 79 32 89 41 12 11 -18 1
-51 -17z"/>
<path d="M2855 499 c-4 -6 -13 -8 -21 -5 -8 3 -14 1 -14 -4 0 -6 6 -10 13 -10
15 1 55 30 40 30 -7 0 -15 -5 -18 -11z"/>
<path d="M2960 475 c-36 -19 -61 -34 -57 -35 10 0 127 59 127 65 0 7 2 8 -70
-30z"/>
<path d="M35 448 l-40 -43 43 40 c39 36 47 45 39 45 -2 0 -21 -19 -42 -42z"/>
<path d="M2865 429 c-11 -16 -1 -19 13 -3 7 8 8 14 3 14 -5 0 -13 -5 -16 -11z"/>
<path d="M1500 395 c19 -19 36 -35 39 -35 3 0 -10 16 -29 35 -19 19 -36 35
-39 35 -3 0 10 -16 29 -35z"/>
<path d="M3020 410 l-45 -7 40 -1 c22 0 51 4 65 8 32 10 5 10 -60 0z"/>
<path d="M1761 394 c0 -11 3 -14 6 -6 3 7 2 16 -1 19 -3 4 -6 -2 -5 -13z"/>
<path d="M2550 385 c13 -14 26 -25 28 -25 3 0 -5 11 -18 25 -13 14 -26 25 -28
25 -3 0 5 -11 18 -25z"/>
<path d="M2801 394 c0 -11 3 -14 6 -6 3 7 2 16 -1 19 -3 4 -6 -2 -5 -13z"/>
<path d="M2898 403 c12 -2 32 -2 45 0 12 2 2 4 -23 4 -25 0 -35 -2 -22 -4z"/>
<path d="M68 353 c28 -2 76 -2 105 0 28 2 5 3 -53 3 -58 0 -81 -1 -52 -3z"/>
<path d="M1575 353 c17 -2 49 -6 72 -9 l43 -5 3 -167 3 -167 2 173 2 172 58
-4 c55 -5 55 -5 12 4 -25 5 -85 8 -135 8 -49 -1 -76 -3 -60 -5z"/>
<path d="M2638 353 c29 -2 74 -2 100 0 26 2 2 3 -53 3 -55 0 -76 -1 -47 -3z"/>
<path d="M790 340 c8 -5 20 -10 25 -10 6 0 3 5 -5 10 -8 5 -19 10 -25 10 -5 0
-3 -5 5 -10z"/>
<path d="M875 340 c-3 -5 -2 -10 4 -10 5 0 13 5 16 10 3 6 2 10 -4 10 -5 0
-13 -4 -16 -10z"/>
<path d="M1063 343 c9 -2 23 -2 30 0 6 3 -1 5 -18 5 -16 0 -22 -2 -12 -5z"/>
<path d="M1230 340 c-9 -6 -10 -10 -3 -10 6 0 15 5 18 10 8 12 4 12 -15 0z"/>
<path d="M1385 341 c17 -4 29 -12 28 -18 -1 -6 4 -16 12 -23 10 -9 13 -8 11 3
-4 27 -28 47 -55 46 -25 -1 -25 -2 4 -8z"/>
<path d="M1967 344 c-4 -4 -7 -29 -7 -56 0 -26 -4 -48 -10 -48 -5 0 -10 -5
-10 -11 0 -5 5 -7 11 -3 8 4 9 -1 4 -17 -5 -19 -4 -21 4 -9 6 8 11 43 11 78 0
55 2 62 20 62 19 0 20 -8 23 -165 l3 -165 -1 167 c0 161 -1 168 -20 171 -12 2
-24 0 -28 -4z"/>
<path d="M2030 343 c0 -5 74 -8 165 -8 91 0 165 3 165 8 0 4 -74 7 -165 7 -91
0 -165 -3 -165 -7z"/>
<path d="M1131 326 c-9 -11 -9 -16 1 -22 7 -4 10 -4 6 1 -4 4 -3 14 3 22 6 7
9 13 6 13 -2 0 -10 -6 -16 -14z"/>
<path d="M1629 328 c-5 -18 -6 -38 -1 -34 7 8 12 36 6 36 -2 0 -4 -1 -5 -2z"/>
<path d="M1865 319 c-5 -8 -5 -11 0 -7 4 4 18 -6 32 -23 14 -16 29 -26 35 -23
5 3 2 14 -8 25 -9 11 -19 17 -22 14 -3 -2 -10 3 -17 12 -10 13 -13 14 -20 2z
m56 -36 c13 -16 12 -17 -3 -4 -17 13 -22 21 -14 21 2 0 10 -8 17 -17z"/>
<path d="M952 289 c25 -34 25 -33 25 -14 0 8 -4 15 -9 15 -4 0 -7 5 -5 11 1 6
-6 13 -15 14 -15 3 -14 -1 4 -26z"/>
<path d="M1454 276 c1 -8 5 -18 8 -22 4 -3 5 1 4 10 -1 8 -5 18 -8 22 -4 3 -5
-1 -4 -10z"/>
<path d="M1591 276 c-8 -10 -9 -16 -1 -21 5 -3 10 -5 11 -3 4 18 7 38 4 38 -1
0 -8 -6 -14 -14z"/>
<path d="M1100 271 c0 -5 5 -13 10 -16 6 -3 10 -2 10 4 0 5 -4 13 -10 16 -5 3
-10 2 -10 -4z"/>
<path d="M1273 240 c0 -25 2 -35 4 -22 2 12 2 32 0 45 -2 12 -4 2 -4 -23z"/>
<path d="M1323 235 c0 -22 2 -30 4 -17 2 12 2 30 0 40 -3 9 -5 -1 -4 -23z"/>
<path d="M1484 236 c1 -8 5 -18 8 -22 4 -3 5 1 4 10 -1 8 -5 18 -8 22 -4 3 -5
-1 -4 -10z"/>
<path d="M1563 238 c-13 -22 -13 -42 0 -29 10 10 19 41 12 41 -2 0 -7 -6 -12
-12z"/>
<path d="M1102 210 c0 -14 2 -19 5 -12 2 6 2 18 0 25 -3 6 -5 1 -5 -13z"/>
<path d="M1514 192 c2 -9 8 -17 15 -18 8 -2 8 -1 0 3 -8 4 -8 7 1 13 9 5 8 9
-3 13 -10 4 -14 0 -13 -11z"/>
<path d="M1289 153 c-13 -16 -12 -17 4 -4 16 13 21 21 13 21 -2 0 -10 -8 -17
-17z"/>
<path d="M1963 85 c0 -44 2 -61 4 -37 2 23 2 59 0 80 -2 20 -4 1 -4 -43z"/>
<path d="M1100 131 c0 -5 22 -11 49 -13 27 -1 47 0 45 4 -2 3 2 9 8 11 7 3
-13 6 -44 6 -32 1 -58 -3 -58 -8z"/>
<path d="M1245 131 c-3 -5 0 -13 6 -17 7 -4 9 -3 5 4 -3 5 0 13 6 15 9 4 10 6
1 6 -6 1 -14 -3 -18 -8z"/>
<path d="M988 88 c-2 -7 -1 -29 3 -48 6 -34 6 -33 8 13 1 46 -3 59 -11 35z"/>
<path d="M705 50 c10 -11 20 -20 23 -20 3 0 -3 9 -13 20 -10 11 -20 20 -23 20
-3 0 3 -9 13 -20z"/>
<path d="M904 38 l-19 -23 23 19 c21 18 27 26 19 26 -2 0 -12 -10 -23 -22z"/>
<path d="M954 38 l-19 -23 23 19 c21 18 27 26 19 26 -2 0 -12 -10 -23 -22z"/>
<path d="M800 10 c-8 -5 -10 -10 -5 -10 6 0 17 5 25 10 8 5 11 10 5 10 -5 0
-17 -5 -25 -10z"/>
</g>
</svg>
